<?xml version="1.0" encoding="utf-8"?>
<!-- Generator: Adobe Illustrator 16.0.0, SVG Export Plug-In . SVG Version: 6.00 Build 0)  -->
<!DOCTYPE svg PUBLIC "-//W3C//DTD SVG 1.1//EN" "http://www.w3.org/Graphics/SVG/1.1/DTD/svg11.dtd">
<svg version="1.1" id="Layer_1" xmlns="http://www.w3.org/2000/svg" xmlns:xlink="http://www.w3.org/1999/xlink" x="0px" y="0px"
	 width="45px" height="45px" viewBox="0 0 45 45" enable-background="new 0 0 45 45" xml:space="preserve">
<path fill="#A7A7A7" d="M37.54,0H7.46C3.356,0,0,3.357,0,7.459V37.54C0,41.643,3.356,45,7.46,45h30.08
	c4.104,0,7.46-3.357,7.46-7.459V7.459C45,3.357,41.645,0,37.54,0z M22.499,40.79C12.398,40.79,4.21,32.602,4.21,22.5
	c0-10.101,8.188-18.29,18.289-18.29c10.103,0,18.29,8.188,18.29,18.29C40.789,32.602,32.602,40.79,22.499,40.79z M27.145,16.616
	l12.121,5.923l-12.121,5.923l1.563-3.786h-12.3l1.563,3.786l-12.12-5.923l12.12-5.923l-1.563,3.786h12.3L27.145,16.616z"/>
</svg>
