<?xml version="1.0" encoding="utf-8"?>
<!-- Generator: Adobe Illustrator 16.0.2, SVG Export Plug-In . SVG Version: 6.00 Build 0)  -->
<!DOCTYPE svg PUBLIC "-//W3C//DTD SVG 1.1//EN" "http://www.w3.org/Graphics/SVG/1.1/DTD/svg11.dtd">
<svg version="1.1" id="Layer_1" xmlns="http://www.w3.org/2000/svg" xmlns:xlink="http://www.w3.org/1999/xlink" x="0px" y="0px"
	 width="300px" height="50px" viewBox="0 0 300 50" enable-background="new 0 0 300 50" xml:space="preserve">
<g>
	<polygon fill="#FFFFFF" points="183.648,47.083 158.851,2.952 148.656,2.973 123.837,47.083 134.078,47.083 153.742,12.115 
		169.479,40.094 169.345,40.094 143.861,40.094 147.779,47.077 173.407,47.077 173.41,47.083 	"/>
	<polygon fill="#FFFFFF" points="201.364,37.913 181.695,2.947 171.458,2.947 196.257,47.077 206.45,47.057 231.269,2.947 
		221.028,2.947 	"/>
	<path fill="#FFFFFF" d="M106.957,29.472c10.259,0,13.203-4.31,13.203-13.755c0-10.587-5.209-12.816-13.92-12.816L72.77,2.952
		v44.172h9.387l0.003-17.618h12.75l16.526,17.618h11.308L105.75,29.472H106.957z M104.316,23.512
		c-0.369-0.009-0.74-0.018-1.107-0.018H82.161L82.157,8.967h20.896c0.305,0,0.619-0.007,0.938-0.014
		c0.338-0.008,0.683-0.015,1.028-0.015c3.776,0,6.613,0.875,6.613,7.224c0,6.799-3.563,7.368-6.191,7.368
		C105.07,23.53,104.694,23.521,104.316,23.512z"/>
	<path fill="#FFFFFF" d="M56.654,24.862c0.319-0.046,7.779-0.889,7.779-10.702c0-6.158-2.588-11.211-12.663-11.211L13,2.936v44.137
		h41.702c8.827,0,10.988-4.952,10.988-11.975C65.689,29.343,62.397,24.862,56.654,24.862z M37.897,21.979l-3.324,6.017h3.455
		l3.387-6.017H37.897z M48.84,41.062l-1.379-0.004H22.414V27.999l9.792-0.002l3.381-6.018H22.414V8.915h23.995
		c0.484,0,2.379-0.009,2.848-0.009c3.373,0,6.76-0.147,6.76,6.304c0,7.313-4.247,6.763-7.22,6.763l-1.079-0.002
		c-0.28,0-0.557,0.002-0.831,0.009h-3.094l-3.406,6.011c4.638,0,7.12-0.002,7.12-0.002h0.183c5.005,0,8.959,0,8.959,6.732
		C56.65,41.062,52.136,41.062,48.84,41.062z"/>
	<path fill="#FFFFFF" d="M267.495,2.025h-14.503c-15.045,0-20.377,4.325-20.377,16.528v12.917c0,12.204,5.332,16.529,20.377,16.529
		h14.503c15.045,0,20.377-4.325,20.377-16.529V18.553C287.872,6.351,282.54,2.025,267.495,2.025z M278.233,30.398
		c0,9.199-1.485,11.69-11.93,11.69h-12.119c-10.445,0-11.931-2.491-11.931-11.69V19.625c0-9.198,1.485-11.688,11.931-11.688h12.119
		c10.444,0,11.93,2.49,11.93,11.688V30.398z"/>
</g>
</svg>
