<?xml version="1.0" encoding="utf-8"?>
<!-- Generator: Adobe Illustrator 16.0.2, SVG Export Plug-In . SVG Version: 6.00 Build 0)  -->
<!DOCTYPE svg PUBLIC "-//W3C//DTD SVG 1.1//EN" "http://www.w3.org/Graphics/SVG/1.1/DTD/svg11.dtd">
<svg version="1.1" id="Layer_1" xmlns="http://www.w3.org/2000/svg" xmlns:xlink="http://www.w3.org/1999/xlink" x="0px" y="0px"
	 width="173px" height="50px" viewBox="21.333 0 173 50" enable-background="new 21.333 0 173 50" xml:space="preserve">
<polygon fill="#00A88E" points="127.851,28.641 112.561,1.431 106.275,1.443 90.972,28.641 97.286,28.641 109.412,7.081 
	119.115,24.332 119.031,24.332 103.318,24.332 105.734,28.638 121.536,28.638 121.538,28.641 "/>
<polygon fill="#00A88E" points="138.773,22.988 126.646,1.427 120.335,1.427 135.625,28.638 141.909,28.625 157.213,1.427 
	150.898,1.427 "/>
<path fill="#00A88E" d="M80.563,17.783c6.326,0,8.141-2.658,8.141-8.482c0-6.527-3.212-7.902-8.583-7.902L59.484,1.431v27.237h5.788
	l0.002-10.864h7.861l10.189,10.864h6.973L79.82,17.783H80.563z M78.936,14.108c-0.228-0.006-0.457-0.011-0.683-0.011H65.274
	l-0.002-8.958h12.884c0.188,0,0.381-0.004,0.579-0.008c0.208-0.005,0.421-0.009,0.634-0.009c2.328,0,4.078,0.54,4.078,4.455
	c0,4.191-2.197,4.542-3.818,4.542C79.4,14.119,79.168,14.114,78.936,14.108z"/>
<path fill="#00A88E" d="M49.548,14.94c0.197-0.027,4.796-0.548,4.796-6.598c0-3.797-1.596-6.913-7.808-6.913L22.631,1.421v27.214
	h25.712c5.443,0,6.775-3.052,6.775-7.383C55.119,17.703,53.089,14.94,49.548,14.94z M37.983,13.163l-2.05,3.71h2.13l2.087-3.71
	H37.983z M44.73,24.93l-0.85-0.002H28.436v-8.053l6.038-0.001l2.085-3.711h-8.123V5.107h14.795c0.299,0,1.467-0.006,1.755-0.006
	c2.08,0,4.168-0.091,4.168,3.887c0,4.509-2.618,4.17-4.451,4.17l-0.666-0.002c-0.172,0-0.343,0.002-0.512,0.006h-1.908l-2.1,3.707
	c2.859-0.001,4.39-0.001,4.39-0.001h0.113c3.087,0,5.524,0,5.524,4.15C49.546,24.93,46.762,24.93,44.73,24.93z"/>
<path fill="#00A88E" d="M179.549,0.859h-8.941c-9.277,0-12.564,2.667-12.564,10.191v7.965c0,7.524,3.287,10.191,12.564,10.191h8.941
	c9.277,0,12.564-2.667,12.564-10.191v-7.965C192.113,3.526,188.826,0.859,179.549,0.859z M186.17,18.354
	c0,5.672-0.916,7.208-7.355,7.208h-7.473c-6.439,0-7.355-1.536-7.355-7.208v-6.643c0-5.671,0.916-7.207,7.355-7.207h7.473
	c6.439,0,7.355,1.536,7.355,7.207V18.354z"/>
<g>
	<path fill="#FBAF3F" d="M22.638,37.814h3.116c1.35,0,2.27,0.728,2.27,1.973c0,0.991-0.551,1.555-1.308,1.76v0.059
		c1.074,0.124,1.755,0.846,1.755,1.967c0,1.473-1.18,2.252-2.799,2.252h-3.034V37.814z M23.841,41.205h1.168
		c1.203,0,1.813-0.369,1.813-1.196c0-0.792-0.563-1.155-1.297-1.155h-1.684V41.205z M23.841,44.785h1.32
		c1.209,0,2.072-0.252,2.072-1.256c0-0.887-0.64-1.332-1.603-1.332h-1.789V44.785z"/>
	<path fill="#FBAF3F" d="M30.257,39.628h1.179v6.196h-1.179V39.628z M31.958,36.541h1.127l-1.638,2.078h-0.891L31.958,36.541z"/>
	<path fill="#FBAF3F" d="M40.205,40.602h0.059v-0.974h1.15v8.314h-1.186V44.88H40.17c-0.229,0.563-0.839,1.032-1.819,1.032
		c-1.443,0-2.335-1.027-2.335-2.688v-0.998c0-1.643,0.916-2.688,2.353-2.688C39.325,39.539,39.959,39.998,40.205,40.602z
		 M37.213,42.38v0.692c0,1.145,0.558,1.796,1.496,1.796c0.933,0,1.52-0.646,1.52-1.708v-0.957c0-0.957-0.628-1.607-1.538-1.607
		C37.758,40.596,37.213,41.282,37.213,42.38z"/>
	<path fill="#FBAF3F" d="M48.563,45.824H47.39v-1.033h-0.059c-0.176,0.499-0.745,1.133-1.831,1.133
		c-1.238,0-2.107-0.593-2.107-2.042v-4.253h1.186v3.93c0,0.992,0.593,1.292,1.292,1.292c0.851,0,1.508-0.604,1.508-1.386v-3.837
		h1.185L48.563,45.824L48.563,45.824z"/>
	<path fill="#FBAF3F" d="M53.559,45.753L53.4,46.182c-0.364,1.015-0.845,1.877-2.229,1.877c-0.264,0-0.546-0.028-0.705-0.059v-0.968
		c0.1,0.024,0.323,0.035,0.476,0.035c0.745,0,1.032-0.334,1.185-0.915l0.082-0.276l-2.236-6.249h1.309l1.554,5.027h0.053
		l1.561-5.027h1.256C55.707,39.628,53.571,45.718,53.559,45.753z"/>
	<path fill="#FBAF3F" d="M56.701,43.148v-0.851c0-1.748,1.114-2.775,2.611-2.775c1.525,0,2.611,1.074,2.611,2.775v0.733h-4.049
		v0.299c0,0.898,0.54,1.567,1.508,1.567c0.704,0,1.179-0.323,1.279-0.704h1.185c-0.087,0.709-0.839,1.736-2.453,1.736
		C57.715,45.93,56.701,44.891,56.701,43.148z M58.795,37.498h1.05l1.526,1.314h-1.133l-0.91-0.744h-0.047l-0.921,0.744h-1.162
		L58.795,37.498z M60.755,42.191v-0.088c0-0.944-0.569-1.578-1.438-1.578c-0.869,0-1.443,0.634-1.443,1.578v0.088H60.755z
		 M61.612,36.207h1.138l-1.795,1.638l-0.47-0.376L61.612,36.207z"/>
	<path fill="#FBAF3F" d="M63.997,38.114h1.167v1.548h1.391v1.016h-1.391v3.31c0,0.681,0.247,0.868,0.969,0.868
		c0.164,0,0.399-0.012,0.498-0.023v0.979c-0.093,0.023-0.528,0.06-0.792,0.06c-1.491,0-1.854-0.547-1.854-1.79v-3.403h-0.944v-1.016
		h0.956V38.114L63.997,38.114z"/>
	<path fill="#FBAF3F" d="M74.831,40.602h0.059v-0.974h1.15v8.314h-1.186V44.88h-0.059c-0.229,0.563-0.839,1.032-1.818,1.032
		c-1.443,0-2.336-1.027-2.336-2.688v-0.998c0-1.643,0.916-2.688,2.354-2.688C73.951,39.539,74.584,39.998,74.831,40.602z
		 M71.838,42.38v0.692c0,1.145,0.557,1.796,1.496,1.796c0.933,0,1.52-0.646,1.52-1.708v-0.957c0-0.957-0.627-1.607-1.537-1.607
		C72.384,40.596,71.838,41.282,71.838,42.38z"/>
	<path fill="#FBAF3F" d="M83.189,45.824h-1.174v-1.033h-0.059c-0.176,0.499-0.745,1.133-1.831,1.133
		c-1.238,0-2.106-0.593-2.106-2.042v-4.253h1.186v3.93c0,0.992,0.593,1.292,1.291,1.292c0.851,0,1.508-0.604,1.508-1.386v-3.837
		h1.185V45.824L83.189,45.824z"/>
	<path fill="#FBAF3F" d="M84.87,44.023c0-1.092,0.757-1.832,2.183-1.832h1.59v-0.586c0-0.723-0.475-1.045-1.226-1.045
		c-0.745,0-1.068,0.281-1.179,0.691h-1.133c0.082-1.031,0.886-1.719,2.347-1.719c1.303,0,2.376,0.547,2.376,2.089v4.201h-1.133
		V45.02h-0.053c-0.287,0.475-0.833,0.904-1.748,0.904C85.697,45.924,84.87,45.178,84.87,44.023z M88.642,43.735v-0.681h-1.443
		c-0.792,0-1.132,0.387-1.132,0.904c0,0.656,0.563,0.979,1.179,0.979C88.032,44.938,88.642,44.422,88.642,43.735z M86.671,36.682
		c0.147-0.059,0.37-0.105,0.646-0.105c0.763,0,1.285,0.394,1.285,1.086c0,0.634-0.44,0.95-0.938,1.221l-0.405-0.528
		c0.417-0.235,0.569-0.404,0.569-0.64c0-0.276-0.253-0.457-0.599-0.457c-0.223,0-0.428,0.041-0.558,0.082L86.671,36.682
		L86.671,36.682z"/>
	<path fill="#FBAF3F" d="M91.808,39.628h1.173v1.108h0.059c0.158-0.48,0.593-1.203,1.866-1.203c1.25,0,2.095,0.688,2.095,2.095
		v4.196H95.81v-3.832c0-0.95-0.493-1.391-1.274-1.391c-1.026,0-1.543,0.752-1.543,1.766v3.457h-1.185V39.628z"/>
	<path fill="#FBAF3F" d="M102.071,38.114h1.167v1.548h1.391v1.016h-1.391v3.31c0,0.681,0.247,0.868,0.969,0.868
		c0.165,0,0.399-0.012,0.498-0.023v0.979c-0.093,0.023-0.527,0.06-0.792,0.06c-1.491,0-1.854-0.547-1.854-1.79v-3.403h-0.945v-1.016
		h0.957L102.071,38.114L102.071,38.114z"/>
	<path fill="#FBAF3F" d="M106.388,39.628h1.186v0.962h0.059c0.146-0.417,0.598-1.057,1.661-1.057c0.151,0,0.293,0.018,0.41,0.035
		v1.127c-0.105-0.029-0.322-0.041-0.528-0.041c-1.063,0-1.584,0.627-1.584,1.461v3.708h-1.203L106.388,39.628L106.388,39.628z"/>
	<path fill="#FBAF3F" d="M111.801,36.97c0.487,0,0.821,0.329,0.821,0.786c0,0.452-0.334,0.78-0.821,0.78
		c-0.464,0-0.804-0.329-0.804-0.78C110.997,37.299,111.332,36.97,111.801,36.97z M111.807,46.592c0.393,0,0.682,0.289,0.682,0.693
		s-0.289,0.674-0.682,0.674s-0.674-0.27-0.674-0.674S111.414,46.592,111.807,46.592z M111.215,39.628h1.186v6.196h-1.186V39.628z"/>
	<path fill="#FBAF3F" d="M121.14,40.549h0.06v-3.157h1.186v8.433h-1.145v-0.986h-0.06c-0.157,0.534-0.804,1.068-1.848,1.068
		c-1.421,0-2.358-0.998-2.358-2.641v-1.085c0-1.614,0.927-2.646,2.382-2.646C120.354,39.534,120.934,40.016,121.14,40.549z
		 M118.17,42.374v0.698c0,1.155,0.586,1.79,1.502,1.79c0.922,0,1.526-0.646,1.526-1.708v-0.957c0-0.957-0.646-1.607-1.556-1.607
		C118.739,40.59,118.17,41.236,118.17,42.374z"/>
	<path fill="#FBAF3F" d="M129.556,42.31v0.815c0,1.789-1.132,2.805-2.711,2.805c-1.603,0-2.717-1.004-2.717-2.805V42.31
		c0-1.69,1.133-2.787,2.717-2.787C128.424,39.521,129.556,40.566,129.556,42.31z M125.313,42.374v0.698
		c0,1.057,0.534,1.818,1.53,1.818c0.986,0,1.515-0.762,1.515-1.818v-0.698c0-1.05-0.558-1.825-1.515-1.825
		C125.889,40.549,125.313,41.324,125.313,42.374z"/>
	<path fill="#FBAF3F" d="M130.938,44.023c0-1.092,0.756-1.832,2.182-1.832h1.59v-0.586c0-0.723-0.475-1.045-1.227-1.045
		c-0.744,0-1.067,0.281-1.179,0.691h-1.133c0.081-1.031,0.886-1.719,2.347-1.719c1.304,0,2.377,0.547,2.377,2.089v4.201h-1.133
		V45.02h-0.053c-0.287,0.475-0.833,0.904-1.748,0.904C131.765,45.924,130.938,45.178,130.938,44.023z M134.71,43.735v-0.681h-1.442
		c-0.793,0-1.133,0.387-1.133,0.904c0,0.656,0.564,0.979,1.18,0.979C134.1,44.938,134.71,44.422,134.71,43.735z"/>
	<path fill="#FBAF3F" d="M137.875,39.628h1.174v1.108h0.059c0.159-0.48,0.593-1.203,1.867-1.203c1.249,0,2.094,0.688,2.094,2.095
		v4.196h-1.19v-3.832c0-0.95-0.493-1.391-1.273-1.391c-1.027,0-1.544,0.752-1.544,1.766v3.457h-1.186V39.628L137.875,39.628z"/>
	<path fill="#FBAF3F" d="M145.078,37.392h1.18v3.345h0.063c0.124-0.435,0.628-1.203,1.896-1.203c1.197,0,2.07,0.692,2.07,2.106
		v4.184h-1.185v-3.819c0-0.951-0.528-1.402-1.31-1.402c-0.991,0-1.537,0.75-1.537,1.766v3.455h-1.179L145.078,37.392L145.078,37.392
		z"/>
	<path fill="#FBAF3F" d="M154.978,39.628h1.173v1.108h0.059c0.159-0.48,0.593-1.203,1.867-1.203c1.249,0,2.094,0.688,2.094,2.095
		v4.196h-1.189v-3.832c0-0.95-0.494-1.391-1.273-1.391c-1.027,0-1.545,0.752-1.545,1.766v3.457h-1.185V39.628L154.978,39.628z"/>
	<path fill="#FBAF3F" d="M166.017,45.66v-0.922h-0.063c-0.242,0.54-0.875,0.975-1.738,0.975c-1.367,0-2.417-0.979-2.417-2.664
		v-0.838c0-1.685,1.045-2.671,2.411-2.671c0.922,0,1.585,0.505,1.79,1.027h0.053v-0.938h1.145v6.078c0,1.736-1.19,2.43-2.782,2.43
		c-1.655,0-2.406-0.811-2.481-1.744h1.186c0.088,0.422,0.569,0.74,1.344,0.74C165.5,47.133,166.017,46.581,166.017,45.66z
		 M162.995,42.38v0.54c0,1.08,0.651,1.783,1.567,1.783c0.932,0,1.455-0.75,1.455-1.625V42.24c0-0.893-0.551-1.656-1.467-1.656
		C163.592,40.584,162.995,41.293,162.995,42.38z"/>
	<path fill="#FBAF3F" d="M169.287,37.392h1.18v3.345h0.064c0.123-0.435,0.627-1.203,1.895-1.203c1.197,0,2.07,0.692,2.07,2.106
		v4.184h-1.184v-3.819c0-0.951-0.529-1.402-1.309-1.402c-0.992,0-1.538,0.75-1.538,1.766v3.455h-1.179V37.392L169.287,37.392z"/>
	<path fill="#FBAF3F" d="M177.211,36.97c0.488,0,0.822,0.329,0.822,0.786c0,0.452-0.334,0.78-0.822,0.78
		c-0.463,0-0.803-0.329-0.803-0.78C176.408,37.299,176.742,36.97,177.211,36.97z M176.625,39.628h1.185v6.196h-1.185V39.628z"/>
	<path fill="#FBAF3F" d="M179.674,43.148v-0.851c0-1.748,1.115-2.775,2.611-2.775c1.525,0,2.61,1.074,2.61,2.775v0.733h-4.048v0.299
		c0,0.898,0.539,1.567,1.508,1.567c0.704,0,1.179-0.323,1.279-0.704h1.186c-0.088,0.709-0.84,1.736-2.453,1.736
		C180.688,45.93,179.674,44.891,179.674,43.148z M181.856,36.477h0.81l1.408,2.16h-0.979l-0.827-1.396h-0.029l-0.881,1.396h-0.975
		L181.856,36.477z M183.729,42.191v-0.088c0-0.944-0.568-1.578-1.438-1.578s-1.443,0.634-1.443,1.578v0.088H183.729z
		 M182.268,46.592c0.393,0,0.68,0.289,0.68,0.693s-0.287,0.674-0.68,0.674c-0.394,0-0.675-0.27-0.675-0.674
		S181.874,46.592,182.268,46.592z"/>
	<path fill="#FBAF3F" d="M187.838,44.891h-0.059v3.046h-1.187v-8.314h1.151v0.985h0.059c0.218-0.574,0.833-1.067,1.843-1.067
		c1.414,0,2.347,0.992,2.347,2.7v0.967c0,1.72-0.945,2.706-2.382,2.706C188.607,45.912,188.072,45.438,187.838,44.891z
		 M190.795,43.031v-0.604c0-1.215-0.574-1.843-1.502-1.843c-0.943,0-1.513,0.646-1.513,1.713v0.957c0,0.951,0.616,1.608,1.537,1.608
		C190.186,44.862,190.795,44.275,190.795,43.031z"/>
</g>
</svg>
